REM DIRINDEX 1\2,1\3,1\4,1\5
REM DIRNAME "folder01","folder02","folder03","folder04","folder05"
TITLE ""
FILE "1Q_j_2263-2276.mp3" MP3
  TRACK 01 AUDIO
    TITLE "0:"
    INDEX 01 00:00:00
  TRACK 02 AUDIO
    TITLE "3:cjc172_0490"
    INDEX 01 00:00:18
  TRACK 03 AUDIO
    TITLE "0:"
    INDEX 01 00:01:63
  TRACK 04 AUDIO
    TITLE "4:cjc172_0491"
    INDEX 01 00:01:72
  TRACK 05 AUDIO
    TITLE "0:"
    INDEX 01 00:03:71
  TRACK 06 AUDIO
    TITLE "5:cjc172_0492"
    INDEX 01 00:04:02
  TRACK 07 AUDIO
    TITLE "0:"
    INDEX 01 00:08:10
  TRACK 08 AUDIO
    TITLE "3:cjc172_0493"
    INDEX 01 00:08:57
  TRACK 09 AUDIO
    TITLE "0:"
    INDEX 01 00:10:09
  TRACK 10 AUDIO
    TITLE "4:cjc172_0494"
    INDEX 01 00:10:19
  TRACK 11 AUDIO
    TITLE "0:"
    INDEX 01 00:11:69
  TRACK 12 AUDIO
    TITLE "5:cjc172_0495"
    INDEX 01 00:11:75
  TRACK 13 AUDIO
    TITLE "0:"
    INDEX 01 00:18:12
  TRACK 14 AUDIO
    TITLE "3:cjc172_0496"
    INDEX 01 00:18:59
  TRACK 15 AUDIO
    TITLE "0:"
    INDEX 01 00:20:21
  TRACK 16 AUDIO
    TITLE "4:cjc172_0497"
    INDEX 01 00:20:31
  TRACK 17 AUDIO
    TITLE "0:"
    INDEX 01 00:22:39
  TRACK 18 AUDIO
    TITLE "5:cjc172_0498"
    INDEX 01 00:22:45
  TRACK 19 AUDIO
    TITLE "0:"
    INDEX 01 00:28:28
  TRACK 20 AUDIO
    TITLE "3:cjc172_0499"
    INDEX 01 00:28:73
  TRACK 21 AUDIO
    TITLE "0:"
    INDEX 01 00:30:33
  TRACK 22 AUDIO
    TITLE "4:cjc172_0500"
    INDEX 01 00:30:41
  TRACK 23 AUDIO
    TITLE "0:"
    INDEX 01 00:32:42
  TRACK 24 AUDIO
    TITLE "5:cjc172_0501"
    INDEX 01 00:32:49
  TRACK 25 AUDIO
    TITLE "0:"
    INDEX 01 00:39:59
  TRACK 26 AUDIO
    TITLE "3:cjc172_0502"
    INDEX 01 00:40:31
  TRACK 27 AUDIO
    TITLE "0:"
    INDEX 01 00:41:60
  TRACK 28 AUDIO
    TITLE "4:cjc172_0503"
    INDEX 01 00:41:66
  TRACK 29 AUDIO
    TITLE "0:"
    INDEX 01 00:44:02
  TRACK 30 AUDIO
    TITLE "5:cjc172_0504"
    INDEX 01 00:44:10
  TRACK 31 AUDIO
    TITLE "0:"
    INDEX 01 00:49:21
  TRACK 32 AUDIO
    TITLE "3:cjc172_0505"
    INDEX 01 00:49:66
  TRACK 33 AUDIO
    TITLE "0:"
    INDEX 01 00:51:08
  TRACK 34 AUDIO
    TITLE "4:cjc172_0506"
    INDEX 01 00:51:17
  TRACK 35 AUDIO
    TITLE "0:"
    INDEX 01 00:52:48
  TRACK 36 AUDIO
    TITLE "5:cjc172_0507"
    INDEX 01 00:52:56
  TRACK 37 AUDIO
    TITLE "0:"
    INDEX 01 00:59:52
  TRACK 38 AUDIO
    TITLE "3:cjc172_0508"
    INDEX 01 01:00:24
  TRACK 39 AUDIO
    TITLE "0:"
    INDEX 01 01:01:51
  TRACK 40 AUDIO
    TITLE "4:cjc172_0509"
    INDEX 01 01:01:61
  TRACK 41 AUDIO
    TITLE "0:"
    INDEX 01 01:04:18
  TRACK 42 AUDIO
    TITLE "5:cjc172_0510"
    INDEX 01 01:04:26
  TRACK 43 AUDIO
    TITLE "0:"
    INDEX 01 01:09:04
  TRACK 44 AUDIO
    TITLE "3:cjc172_0511"
    INDEX 01 01:09:49
  TRACK 45 AUDIO
    TITLE "0:"
    INDEX 01 01:10:52
  TRACK 46 AUDIO
    TITLE "4:cjc172_0512"
    INDEX 01 01:10:70
  TRACK 47 AUDIO
    TITLE "0:"
    INDEX 01 01:12:65
  TRACK 48 AUDIO
    TITLE "5:cjc172_0513"
    INDEX 01 01:12:74
  TRACK 49 AUDIO
    TITLE "0:"
    INDEX 01 01:19:65
  TRACK 50 AUDIO
    TITLE "3:cjc172_0514"
    INDEX 01 01:20:35
  TRACK 51 AUDIO
    TITLE "0:"
    INDEX 01 01:21:36
  TRACK 52 AUDIO
    TITLE "4:cjc172_0515"
    INDEX 01 01:21:54
  TRACK 53 AUDIO
    TITLE "0:"
    INDEX 01 01:24:11
  TRACK 54 AUDIO
    TITLE "5:cjc172_0516"
    INDEX 01 01:24:19
  TRACK 55 AUDIO
    TITLE "0:"
    INDEX 01 01:29:12
  TRACK 56 AUDIO
    TITLE "3:cjc172_0517"
    INDEX 01 01:29:59
  TRACK 57 AUDIO
    TITLE "0:"
    INDEX 01 01:31:05
  TRACK 58 AUDIO
    TITLE "4:cjc172_0518"
    INDEX 01 01:31:15
  TRACK 59 AUDIO
    TITLE "0:"
    INDEX 01 01:36:10
  TRACK 60 AUDIO
    TITLE "5:cjc172_0519"
    INDEX 01 01:36:16
  TRACK 61 AUDIO
    TITLE "0:"
    INDEX 01 01:44:59
  TRACK 62 AUDIO
    TITLE "3:cjc172_0520"
    INDEX 01 01:45:29
  TRACK 63 AUDIO
    TITLE "0:"
    INDEX 01 01:46:44
  TRACK 64 AUDIO
    TITLE "4:cjc172_0521"
    INDEX 01 01:46:54
  TRACK 65 AUDIO
    TITLE "0:"
    INDEX 01 01:48:49
  TRACK 66 AUDIO
    TITLE "5:cjc172_0522"
    INDEX 01 01:48:57
  TRACK 67 AUDIO
    TITLE "0:"
    INDEX 01 01:54:42
  TRACK 68 AUDIO
    TITLE "3:cjc172_0523"
    INDEX 01 01:55:16
  TRACK 69 AUDIO
    TITLE "0:"
    INDEX 01 01:56:38
  TRACK 70 AUDIO
    TITLE "4:cjc172_0524"
    INDEX 01 01:56:46
  TRACK 71 AUDIO
    TITLE "0:"
    INDEX 01 01:59:31
  TRACK 72 AUDIO
    TITLE "5:cjc172_0525"
    INDEX 01 01:59:39
  TRACK 73 AUDIO
    TITLE "0:"
    INDEX 01 02:06:06
  TRACK 74 AUDIO
    TITLE "3:cjc172_0526"
    INDEX 01 02:06:54
  TRACK 75 AUDIO
    TITLE "0:"
    INDEX 01 02:08:04
  TRACK 76 AUDIO
    TITLE "4:cjc172_0527"
    INDEX 01 02:08:12
  TRACK 77 AUDIO
    TITLE "0:"
    INDEX 01 02:09:69
  TRACK 78 AUDIO
    TITLE "5:cjc172_0528"
    INDEX 01 02:10:01
  TRACK 79 AUDIO
    TITLE "0:"
    INDEX 01 02:17:39
  TRACK 80 AUDIO
    TITLE "3:cjc172_0529"
    INDEX 01 02:18:11
  TRACK 81 AUDIO
    TITLE "0:"
    INDEX 01 02:19:40
  TRACK 82 AUDIO
    TITLE "4:cjc172_0530"
    INDEX 01 02:19:45
  TRACK 83 AUDIO
    TITLE "0:"
    INDEX 01 02:22:52
  TRACK 84 AUDIO
    TITLE "5:cjc172_0531"
    INDEX 01 02:22:57
  TRACK 85 AUDIO
    TITLE "0:"
    INDEX 01 02:27:15
